<svg xmlns="http://www.w3.org/2000/svg" version="1.1" xmlns:xlink="http://www.w3.org/1999/xlink" xmlns:svgjs="http://svgjs.dev/svgjs" width="1000" height="1000" viewBox="0 0 1000 1000"><rect width="1000" height="1000" fill="#ffffff"></rect><g transform="matrix(0.7,0,0,0.7,149.57575821531412,413.8410458465186)"><svg viewBox="0 0 396 98" data-background-color="#ffffff" preserveAspectRatio="xMidYMid meet" height="247" width="1000" xmlns="http://www.w3.org/2000/svg" xmlns:xlink="http://www.w3.org/1999/xlink"><g id="tight-bounds" transform="matrix(1,0,0,1,0.23999976998351258,-0.16496525713606047)"><svg viewBox="0 0 395.52 98.3299305142721" height="98.3299305142721" width="395.52"><g><svg viewBox="0 0 547.8236402033734 136.1940242598941" height="98.3299305142721" width="395.52"><g transform="matrix(1,0,0,1,0,18.8227631213023)"><svg viewBox="0 0 395.52 98.54849801728949" height="98.54849801728949" width="395.52"><g><svg viewBox="0 0 395.52 98.54849801728949" height="98.54849801728949" width="395.52"><g><svg viewBox="0 0 395.52 68.23270263730944" height="68.23270263730944" width="395.52"><g transform="matrix(1,0,0,1,0,0)"><svg width="395.52" viewBox="2.4000000953674316 -35.349998474121094 206.63999938964844 35.64999771118164" height="68.23270263730944" data-palette-color="#97978d"><g class="undefined-text-0" data-fill-palette-color="primary" id="text-0"><path d="M2.4-17.5Q2.4-22.65 4.65-26.73 6.9-30.8 10.8-33.08 14.7-35.35 19.5-35.35L19.5-35.35Q25.35-35.35 29.53-32.58 33.7-29.8 35.6-24.75L35.6-24.75 31.5-24.75Q30-28.3 26.93-30.3 23.85-32.3 19.5-32.3L19.5-32.3Q15.65-32.3 12.58-30.5 9.5-28.7 7.75-25.33 6-21.95 6-17.5L6-17.5Q6-13.05 7.75-9.7 9.5-6.35 12.58-4.55 15.65-2.75 19.5-2.75L19.5-2.75Q23.85-2.75 26.93-4.73 30-6.7 31.5-10.2L31.5-10.2 35.6-10.2Q33.7-5.2 29.5-2.45 25.3 0.3 19.5 0.3L19.5 0.3Q14.7 0.3 10.8-1.98 6.9-4.25 4.65-8.3 2.4-12.35 2.4-17.5L2.4-17.5ZM65-34.95L68.5-34.95 68.5 0 65 0 65-16.35 46.05-16.35 46.05 0 42.55 0 42.55-34.95 46.05-34.95 46.05-19.25 65-19.25 65-34.95ZM99.8 0L96.75-8.3 80.84-8.3 77.8 0 74.09 0 86.84-34.5 90.8-34.5 103.5 0 99.8 0ZM81.9-11.2L95.7-11.2 88.8-30.1 81.9-11.2ZM106.59-34.95L129.54-34.95 129.54-32.05 119.84-32.05 119.84 0 116.34 0 116.34-32.05 106.59-32.05 106.59-34.95ZM132.59-34.95L155.54-34.95 155.54-32.05 145.84-32.05 145.84 0 142.34 0 142.34-32.05 132.59-32.05 132.59-34.95ZM179.34-32.1L164.59-32.1 164.59-19.05 177.84-19.05 177.84-16.15 164.59-16.15 164.59-2.9 179.34-2.9 179.34 0 161.09 0 161.09-35 179.34-35 179.34-32.1ZM209.04 0L204.84 0 196.19-14.6 189.74-14.6 189.74 0 186.24 0 186.24-34.95 196.74-34.95Q202.59-34.95 205.61-32.15 208.64-29.35 208.64-24.8L208.64-24.8Q208.64-21 206.46-18.32 204.29-15.65 200.04-14.85L200.04-14.85 209.04 0ZM189.74-32L189.74-17.45 196.79-17.45Q200.89-17.45 202.96-19.45 205.04-21.45 205.04-24.8L205.04-24.8Q205.04-28.25 203.04-30.13 201.04-32 196.74-32L196.74-32 189.74-32Z" fill="#000000" data-fill-palette-color="primary"></path></g></svg></g></svg></g><g transform="matrix(1,0,0,1,163.310208,84.34080614511491)"><svg viewBox="0 0 232.209792 14.207691872174589" height="14.207691872174589" width="232.209792"><g transform="matrix(1,0,0,1,0,0)"><svg width="232.209792" viewBox="-0.05000000074505806 -37.400001525878906 769.72998046875 47.10000228881836" height="14.207691872174589" data-palette-color="#97978d"><path d="M31.4 0L27.55-8.75 8.95-8.75 5.1 0-0.05 0 15.8-35 20.75-35 36.65 0 31.4 0ZM10.7-12.75L25.8-12.75 18.25-29.9 10.7-12.75ZM66.15 0.3Q62.1 0.3 58.92-1.45 55.75-3.2 53.95-6.28 52.15-9.35 52.15-13.25L52.15-13.25Q52.15-17.15 53.95-20.23 55.75-23.3 58.92-25.03 62.1-26.75 66.15-26.75L66.15-26.75Q69.75-26.75 72.57-25.3 75.4-23.85 76.95-21.1L76.95-21.1 73.3-18.75Q72.05-20.65 70.2-21.6 68.35-22.55 66.1-22.55L66.1-22.55Q63.5-22.55 61.42-21.4 59.35-20.25 58.17-18.13 57-16 57-13.25L57-13.25Q57-10.45 58.17-8.33 59.35-6.2 61.42-5.05 63.5-3.9 66.1-3.9L66.1-3.9Q68.35-3.9 70.2-4.85 72.05-5.8 73.3-7.7L73.3-7.7 76.95-5.4Q75.4-2.65 72.57-1.18 69.75 0.3 66.15 0.3L66.15 0.3ZM96.94-26.75Q101.99-26.75 104.97-23.83 107.94-20.9 107.94-15.25L107.94-15.25 107.94 0 103.14 0 103.14-14.7Q103.14-18.55 101.29-20.5 99.44-22.45 95.99-22.45L95.99-22.45Q92.09-22.45 89.84-20.18 87.59-17.9 87.59-13.65L87.59-13.65 87.59 0 82.79 0 82.79-37.1 87.59-37.1 87.59-22.75Q89.09-24.65 91.52-25.7 93.94-26.75 96.94-26.75L96.94-26.75ZM126.49-26.75Q131.99-26.75 134.92-24.05 137.84-21.35 137.84-16L137.84-16 137.84 0 133.29 0 133.29-3.5Q132.09-1.65 129.87-0.68 127.64 0.3 124.59 0.3L124.59 0.3Q120.14 0.3 117.47-1.85 114.79-4 114.79-7.5L114.79-7.5Q114.79-11 117.34-13.13 119.89-15.25 125.44-15.25L125.44-15.25 133.04-15.25 133.04-16.2Q133.04-19.3 131.24-20.95 129.44-22.6 125.94-22.6L125.94-22.6Q123.59-22.6 121.34-21.83 119.09-21.05 117.54-19.75L117.54-19.75 115.54-23.35Q117.59-25 120.44-25.88 123.29-26.75 126.49-26.75L126.49-26.75ZM125.39-3.4Q128.14-3.4 130.14-4.63 132.14-5.85 133.04-8.1L133.04-8.1 133.04-11.8 125.64-11.8Q119.54-11.8 119.54-7.7L119.54-7.7Q119.54-5.7 121.09-4.55 122.64-3.4 125.39-3.4L125.39-3.4ZM160.14-5L161.64-1.55Q160.59-0.65 159.04-0.18 157.49 0.3 155.84 0.3L155.84 0.3Q151.84 0.3 149.64-1.85 147.44-4 147.44-8L147.44-8 147.44-22.55 142.94-22.55 142.94-26.5 147.44-26.5 147.44-32.3 152.24-32.3 152.24-26.5 159.84-26.5 159.84-22.55 152.24-22.55 152.24-8.2Q152.24-6.05 153.31-4.9 154.39-3.75 156.39-3.75L156.39-3.75Q158.59-3.75 160.14-5L160.14-5ZM194.93-26.75Q198.78-26.75 201.83-25.05 204.88-23.35 206.61-20.3 208.33-17.25 208.33-13.25L208.33-13.25Q208.33-9.25 206.61-6.18 204.88-3.1 201.83-1.4 198.78 0.3 194.93 0.3L194.93 0.3Q192.08 0.3 189.71-0.8 187.33-1.9 185.68-4L185.68-4 185.68 9.7 180.88 9.7 180.88-26.5 185.48-26.5 185.48-22.3Q187.08-24.5 189.53-25.63 191.98-26.75 194.93-26.75L194.93-26.75ZM194.53-3.9Q197.08-3.9 199.11-5.08 201.13-6.25 202.31-8.38 203.48-10.5 203.48-13.25L203.48-13.25Q203.48-16 202.31-18.13 201.13-20.25 199.11-21.4 197.08-22.55 194.53-22.55L194.53-22.55Q192.03-22.55 190.01-21.38 187.98-20.2 186.81-18.1 185.63-16 185.63-13.25L185.63-13.25Q185.63-10.5 186.78-8.38 187.93-6.25 189.98-5.08 192.03-3.9 194.53-3.9L194.53-3.9ZM214.98 0L214.98-37.1 219.78-37.1 219.78 0 214.98 0ZM238.58-26.75Q244.08-26.75 247-24.05 249.93-21.35 249.93-16L249.93-16 249.93 0 245.38 0 245.38-3.5Q244.18-1.65 241.95-0.68 239.73 0.3 236.68 0.3L236.68 0.3Q232.23 0.3 229.55-1.85 226.88-4 226.88-7.5L226.88-7.5Q226.88-11 229.43-13.13 231.98-15.25 237.53-15.25L237.53-15.25 245.13-15.25 245.13-16.2Q245.13-19.3 243.33-20.95 241.53-22.6 238.03-22.6L238.03-22.6Q235.68-22.6 233.43-21.83 231.18-21.05 229.63-19.75L229.63-19.75 227.63-23.35Q229.68-25 232.53-25.88 235.38-26.75 238.58-26.75L238.58-26.75ZM237.48-3.4Q240.23-3.4 242.23-4.63 244.23-5.85 245.13-8.1L245.13-8.1 245.13-11.8 237.73-11.8Q231.63-11.8 231.63-7.7L231.63-7.7Q231.63-5.7 233.18-4.55 234.73-3.4 237.48-3.4L237.48-3.4ZM272.23-5L273.73-1.55Q272.68-0.65 271.13-0.18 269.58 0.3 267.93 0.3L267.93 0.3Q263.93 0.3 261.73-1.85 259.53-4 259.53-8L259.53-8 259.53-22.55 255.03-22.55 255.03-26.5 259.53-26.5 259.53-32.3 264.33-32.3 264.33-26.5 271.93-26.5 271.93-22.55 264.33-22.55 264.33-8.2Q264.33-6.05 265.4-4.9 266.48-3.75 268.48-3.75L268.48-3.75Q270.68-3.75 272.23-5L272.23-5ZM289.22-33.45Q284.92-33.45 284.92-28.8L284.92-28.8 284.92-26.5 292.62-26.5 292.62-22.55 285.02-22.55 285.02 0 280.22 0 280.22-22.55 275.72-22.55 275.72-26.5 280.22-26.5 280.22-28.85Q280.22-32.8 282.52-35.1 284.82-37.4 288.97-37.4L288.97-37.4Q290.57-37.4 291.97-37 293.37-36.6 294.37-35.85L294.37-35.85 292.92-32.2Q291.27-33.45 289.22-33.45L289.22-33.45ZM308.12 0.3Q304.17 0.3 301.02-1.45 297.87-3.2 296.1-6.28 294.32-9.35 294.32-13.25L294.32-13.25Q294.32-17.15 296.1-20.23 297.87-23.3 301.02-25.03 304.17-26.75 308.12-26.75L308.12-26.75Q312.07-26.75 315.2-25.03 318.32-23.3 320.1-20.23 321.87-17.15 321.87-13.25L321.87-13.25Q321.87-9.35 320.1-6.28 318.32-3.2 315.2-1.45 312.07 0.3 308.12 0.3L308.12 0.3ZM308.12-3.9Q310.67-3.9 312.7-5.08 314.72-6.25 315.87-8.38 317.02-10.5 317.02-13.25L317.02-13.25Q317.02-16 315.87-18.13 314.72-20.25 312.7-21.4 310.67-22.55 308.12-22.55L308.12-22.55Q305.57-22.55 303.55-21.4 301.52-20.25 300.35-18.13 299.17-16 299.17-13.25L299.17-13.25Q299.17-10.5 300.35-8.38 301.52-6.25 303.55-5.08 305.57-3.9 308.12-3.9L308.12-3.9ZM333.12-22.05Q334.37-24.35 336.82-25.55 339.27-26.75 342.77-26.75L342.77-26.75 342.77-22.1Q342.37-22.15 341.67-22.15L341.67-22.15Q337.77-22.15 335.54-19.83 333.32-17.5 333.32-13.2L333.32-13.2 333.32 0 328.52 0 328.52-26.5 333.12-26.5 333.12-22.05ZM381.81-26.75Q386.81-26.75 389.74-23.85 392.67-20.95 392.67-15.25L392.67-15.25 392.67 0 387.87 0 387.87-14.7Q387.87-18.55 386.09-20.5 384.31-22.45 381.01-22.45L381.01-22.45Q377.37-22.45 375.22-20.18 373.06-17.9 373.06-13.65L373.06-13.65 373.06 0 368.26 0 368.26-14.7Q368.26-18.55 366.49-20.5 364.72-22.45 361.42-22.45L361.42-22.45Q357.76-22.45 355.62-20.18 353.47-17.9 353.47-13.65L353.47-13.65 353.47 0 348.67 0 348.67-26.5 353.26-26.5 353.26-22.55Q354.72-24.6 357.06-25.68 359.42-26.75 362.42-26.75L362.42-26.75Q365.51-26.75 367.92-25.5 370.31-24.25 371.62-21.85L371.62-21.85Q373.12-24.15 375.79-25.45 378.47-26.75 381.81-26.75L381.81-26.75ZM424.66-33.45Q420.36-33.45 420.36-28.8L420.36-28.8 420.36-26.5 428.06-26.5 428.06-22.55 420.46-22.55 420.46 0 415.66 0 415.66-22.55 411.16-22.55 411.16-26.5 415.66-26.5 415.66-28.85Q415.66-32.8 417.96-35.1 420.26-37.4 424.41-37.4L424.41-37.4Q426.01-37.4 427.41-37 428.81-36.6 429.81-35.85L429.81-35.85 428.36-32.2Q426.71-33.45 424.66-33.45L424.66-33.45ZM443.56 0.3Q439.61 0.3 436.46-1.45 433.31-3.2 431.53-6.28 429.76-9.35 429.76-13.25L429.76-13.25Q429.76-17.15 431.53-20.23 433.31-23.3 436.46-25.03 439.61-26.75 443.56-26.75L443.56-26.75Q447.51-26.75 450.63-25.03 453.76-23.3 455.53-20.23 457.31-17.15 457.31-13.25L457.31-13.25Q457.31-9.35 455.53-6.28 453.76-3.2 450.63-1.45 447.51 0.3 443.56 0.3L443.56 0.3ZM443.56-3.9Q446.11-3.9 448.13-5.08 450.16-6.25 451.31-8.38 452.46-10.5 452.46-13.25L452.46-13.25Q452.46-16 451.31-18.13 450.16-20.25 448.13-21.4 446.11-22.55 443.56-22.55L443.56-22.55Q441.01-22.55 438.98-21.4 436.96-20.25 435.78-18.13 434.61-16 434.61-13.25L434.61-13.25Q434.61-10.5 435.78-8.38 436.96-6.25 438.98-5.08 441.01-3.9 443.56-3.9L443.56-3.9ZM468.56-22.05Q469.81-24.35 472.26-25.55 474.71-26.75 478.21-26.75L478.21-26.75 478.21-22.1Q477.81-22.15 477.11-22.15L477.11-22.15Q473.21-22.15 470.98-19.83 468.76-17.5 468.76-13.2L468.76-13.2 468.76 0 463.96 0 463.96-26.5 468.56-26.5 468.56-22.05ZM518.1-37.1L522.9-37.1 522.9 0 518.3 0 518.3-4.2Q516.7-2 514.25-0.85 511.8 0.3 508.85 0.3L508.85 0.3Q505 0.3 501.95-1.4 498.9-3.1 497.18-6.18 495.45-9.25 495.45-13.25L495.45-13.25Q495.45-17.25 497.18-20.3 498.9-23.35 501.95-25.05 505-26.75 508.85-26.75L508.85-26.75Q511.7-26.75 514.1-25.68 516.5-24.6 518.1-22.5L518.1-22.5 518.1-37.1ZM509.25-3.9Q511.75-3.9 513.8-5.08 515.85-6.25 517-8.38 518.15-10.5 518.15-13.25L518.15-13.25Q518.15-16 517-18.13 515.85-20.25 513.8-21.4 511.75-22.55 509.25-22.55L509.25-22.55Q506.7-22.55 504.68-21.4 502.65-20.25 501.48-18.13 500.3-16 500.3-13.25L500.3-13.25Q500.3-10.5 501.48-8.38 502.65-6.25 504.68-5.08 506.7-3.9 509.25-3.9L509.25-3.9ZM555.95-13.1Q555.95-12.55 555.85-11.65L555.85-11.65 534.35-11.65Q534.8-8.15 537.42-6.03 540.05-3.9 543.95-3.9L543.95-3.9Q548.7-3.9 551.6-7.1L551.6-7.1 554.25-4Q552.45-1.9 549.77-0.8 547.1 0.3 543.8 0.3L543.8 0.3Q539.6 0.3 536.35-1.43 533.1-3.15 531.32-6.25 529.55-9.35 529.55-13.25L529.55-13.25Q529.55-17.1 531.27-20.2 533-23.3 536.02-25.03 539.05-26.75 542.85-26.75L542.85-26.75Q546.65-26.75 549.62-25.03 552.6-23.3 554.27-20.2 555.95-17.1 555.95-13.1L555.95-13.1ZM542.85-22.7Q539.4-22.7 537.07-20.6 534.75-18.5 534.35-15.1L534.35-15.1 551.35-15.1Q550.95-18.45 548.62-20.58 546.3-22.7 542.85-22.7L542.85-22.7ZM580.84-26.5L585.54-26.5 573.94 0 569.04 0 557.44-26.5 562.44-26.5 571.54-5.25 580.84-26.5ZM613.24-13.1Q613.24-12.55 613.14-11.65L613.14-11.65 591.64-11.65Q592.09-8.15 594.72-6.03 597.34-3.9 601.24-3.9L601.24-3.9Q605.99-3.9 608.89-7.1L608.89-7.1 611.54-4Q609.74-1.9 607.07-0.8 604.39 0.3 601.09 0.3L601.09 0.3Q596.89 0.3 593.64-1.43 590.39-3.15 588.62-6.25 586.84-9.35 586.84-13.25L586.84-13.25Q586.84-17.1 588.57-20.2 590.29-23.3 593.32-25.03 596.34-26.75 600.14-26.75L600.14-26.75Q603.94-26.75 606.92-25.03 609.89-23.3 611.57-20.2 613.24-17.1 613.24-13.1L613.24-13.1ZM600.14-22.7Q596.69-22.7 594.37-20.6 592.04-18.5 591.64-15.1L591.64-15.1 608.64-15.1Q608.24-18.45 605.92-20.58 603.59-22.7 600.14-22.7L600.14-22.7ZM619.89 0L619.89-37.1 624.69-37.1 624.69 0 619.89 0ZM645.19 0.3Q641.24 0.3 638.09-1.45 634.94-3.2 633.16-6.28 631.39-9.35 631.39-13.25L631.39-13.25Q631.39-17.15 633.16-20.23 634.94-23.3 638.09-25.03 641.24-26.75 645.19-26.75L645.19-26.75Q649.14-26.75 652.26-25.03 655.39-23.3 657.16-20.23 658.94-17.15 658.94-13.25L658.94-13.25Q658.94-9.35 657.16-6.28 655.39-3.2 652.26-1.45 649.14 0.3 645.19 0.3L645.19 0.3ZM645.19-3.9Q647.74-3.9 649.76-5.08 651.79-6.25 652.94-8.38 654.09-10.5 654.09-13.25L654.09-13.25Q654.09-16 652.94-18.13 651.79-20.25 649.76-21.4 647.74-22.55 645.19-22.55L645.19-22.55Q642.64-22.55 640.61-21.4 638.59-20.25 637.41-18.13 636.24-16 636.24-13.25L636.24-13.25Q636.24-10.5 637.41-8.38 638.59-6.25 640.61-5.08 642.64-3.9 645.19-3.9L645.19-3.9ZM679.63-26.75Q683.48-26.75 686.53-25.05 689.58-23.35 691.31-20.3 693.03-17.25 693.03-13.25L693.03-13.25Q693.03-9.25 691.31-6.18 689.58-3.1 686.53-1.4 683.48 0.3 679.63 0.3L679.63 0.3Q676.78 0.3 674.41-0.8 672.03-1.9 670.38-4L670.38-4 670.38 9.7 665.58 9.7 665.58-26.5 670.18-26.5 670.18-22.3Q671.78-24.5 674.23-25.63 676.68-26.75 679.63-26.75L679.63-26.75ZM679.23-3.9Q681.78-3.9 683.81-5.08 685.83-6.25 687.01-8.38 688.18-10.5 688.18-13.25L688.18-13.25Q688.18-16 687.01-18.13 685.83-20.25 683.81-21.4 681.78-22.55 679.23-22.55L679.23-22.55Q676.73-22.55 674.71-21.38 672.68-20.2 671.51-18.1 670.33-16 670.33-13.25L670.33-13.25Q670.33-10.5 671.48-8.38 672.63-6.25 674.68-5.08 676.73-3.9 679.23-3.9L679.23-3.9ZM723.63-13.1Q723.63-12.55 723.53-11.65L723.53-11.65 702.03-11.65Q702.48-8.15 705.11-6.03 707.73-3.9 711.63-3.9L711.63-3.9Q716.38-3.9 719.28-7.1L719.28-7.1 721.93-4Q720.13-1.9 717.46-0.8 714.78 0.3 711.48 0.3L711.48 0.3Q707.28 0.3 704.03-1.43 700.78-3.15 699.01-6.25 697.23-9.35 697.23-13.25L697.23-13.25Q697.23-17.1 698.96-20.2 700.68-23.3 703.71-25.03 706.73-26.75 710.53-26.75L710.53-26.75Q714.33-26.75 717.31-25.03 720.28-23.3 721.96-20.2 723.63-17.1 723.63-13.1L723.63-13.1ZM710.53-22.7Q707.08-22.7 704.76-20.6 702.43-18.5 702.03-15.1L702.03-15.1 719.03-15.1Q718.63-18.45 716.31-20.58 713.98-22.7 710.53-22.7L710.53-22.7ZM734.88-22.05Q736.13-24.35 738.58-25.55 741.03-26.75 744.53-26.75L744.53-26.75 744.53-22.1Q744.13-22.15 743.43-22.15L743.43-22.15Q739.53-22.15 737.3-19.83 735.08-17.5 735.08-13.2L735.08-13.2 735.08 0 730.28 0 730.28-26.5 734.88-26.5 734.88-22.05ZM758.23 0.3Q754.98 0.3 751.98-0.58 748.98-1.45 747.28-2.8L747.28-2.8 749.28-6.6Q751.03-5.35 753.53-4.6 756.03-3.85 758.58-3.85L758.58-3.85Q764.88-3.85 764.88-7.45L764.88-7.45Q764.88-8.65 764.03-9.35 763.18-10.05 761.9-10.38 760.63-10.7 758.28-11.1L758.28-11.1Q755.08-11.6 753.05-12.25 751.03-12.9 749.58-14.45 748.13-16 748.13-18.8L748.13-18.8Q748.13-22.4 751.13-24.58 754.13-26.75 759.18-26.75L759.18-26.75Q761.83-26.75 764.48-26.1 767.13-25.45 768.83-24.35L768.83-24.35 766.78-20.55Q763.53-22.65 759.13-22.65L759.13-22.65Q756.08-22.65 754.48-21.65 752.88-20.65 752.88-19L752.88-19Q752.88-17.7 753.78-16.95 754.68-16.2 756-15.85 757.33-15.5 759.73-15.05L759.73-15.05Q762.93-14.5 764.9-13.88 766.88-13.25 768.28-11.75 769.68-10.25 769.68-7.55L769.68-7.55Q769.68-3.95 766.6-1.83 763.53 0.3 758.23 0.3L758.23 0.3Z" opacity="1" transform="matrix(1,0,0,1,0,0)" fill="#000000" class="undefined-text-1" data-fill-palette-color="secondary" id="text-1"></path></svg></g></svg></g></svg></g></svg></g><g transform="matrix(1,0,0,1,411.62810350780546,0)"><svg viewBox="0 0 136.19553669556797 136.1940242598941" height="136.1940242598941" width="136.19553669556797"><g><svg xmlns="http://www.w3.org/2000/svg" xmlns:xlink="http://www.w3.org/1999/xlink" version="1.1" x="0" y="0" viewBox="4.9670000076293945 5 90.0009994506836 90" enable-background="new 0 0 100 100" xml:space="preserve" height="136.1940242598941" width="136.19553669556797" class="icon-icon-0" data-fill-palette-color="accent" id="icon-0"><g fill="#97978d" data-fill-palette-color="accent"><polygon points="81.588,69.219 76.042,77.733 49.901,5 30.566,58.797 24.486,43.546 4.967,95 17.555,95 45,95 64.794,95 82.249,95    94.968,95  " fill="#000000" data-fill-palette-color="accent"></polygon></g></svg></g></svg></g></svg></g><defs></defs></svg><rect width="395.52" height="98.3299305142721" fill="none" stroke="none" visibility="hidden"></rect></g></svg></g></svg>