<?xml version="1.0" encoding="UTF-8"?>
<svg xmlns="http://www.w3.org/2000/svg" xmlns:xlink="http://www.w3.org/1999/xlink" width="150px" height="75px" viewBox="0 0 149 75" version="1.1">
<g id="surface1">
<path style=" stroke:none;fill-rule:nonzero;fill:rgb(0%,0%,0%);fill-opacity:1;" d="M 78.976562 0.890625 C 68.808594 2.574219 60.746094 8.417969 56.304688 17.230469 C 54.097656 21.65625 53.539062 24.363281 53.472656 30.46875 L 53.441406 35.652344 L 52.417969 36.742188 C 49.195312 40.175781 47.1875 43.96875 46.398438 48.097656 C 45.871094 50.835938 46.132812 56.777344 46.859375 58.925781 C 48.867188 64.535156 52.320312 68.894531 57.09375 71.664062 C 59.230469 72.921875 63.113281 74.140625 65.910156 74.4375 L 68.117188 74.667969 L 68.117188 46.875 L 72.066406 46.875 L 72.066406 60.738281 L 76.015625 60.738281 L 76.015625 46.875 L 80.949219 46.875 L 80.949219 43.574219 L 68.117188 43.574219 L 68.117188 30.371094 L 66.40625 30.371094 C 65.449219 30.371094 63.839844 30.601562 62.851562 30.863281 C 61.863281 31.128906 60.910156 31.359375 60.746094 31.359375 C 60.1875 31.359375 60.910156 26.046875 61.832031 23.273438 C 64.167969 16.242188 69.894531 10.894531 77.164062 8.878906 C 80.523438 7.957031 86.148438 8.121094 89.503906 9.175781 C 95.890625 11.257812 101.679688 17.066406 103.6875 23.4375 C 104.410156 25.683594 104.9375 31.359375 104.445312 31.359375 C 104.28125 31.359375 103.425781 31.128906 102.535156 30.863281 C 101.648438 30.601562 100.132812 30.371094 99.148438 30.371094 L 97.402344 30.371094 L 97.402344 74.667969 L 99.574219 74.4375 C 102.238281 74.175781 105.003906 73.285156 108.066406 71.730469 C 111.453125 70.015625 115.269531 66.054688 117.082031 62.355469 C 120.207031 56.050781 120.238281 48.921875 117.179688 42.75 C 115.960938 40.339844 112.507812 35.652344 111.914062 35.652344 C 111.78125 35.652344 111.78125 34.792969 111.949219 33.738281 C 112.539062 30.238281 111.75 23.964844 110.203125 19.804688 C 107.4375 12.3125 100.988281 5.777344 93.453125 2.804688 C 89.144531 1.121094 82.726562 0.265625 78.976562 0.890625 Z M 78.976562 0.890625 "/>
<path style=" stroke:none;fill-rule:nonzero;fill:rgb(0%,0%,0%);fill-opacity:1;" d="M 5.230469 38.917969 C 3.652344 39.449219 2.664062 40.304688 1.910156 41.855469 C 1.183594 43.34375 1.152344 43.738281 1.152344 51.167969 C 1.152344 58.792969 1.152344 58.957031 1.972656 60.574219 C 2.433594 61.464844 3.289062 62.554688 3.882812 62.949219 C 6.121094 64.4375 10.101562 64.207031 11.945312 62.457031 C 13.0625 61.398438 13.820312 58.925781 13.820312 56.382812 L 13.820312 54.46875 L 10.925781 54.46875 L 10.695312 57.007812 C 10.5625 58.429688 10.265625 59.914062 10.003906 60.308594 C 9.050781 61.828125 5.757812 61.53125 4.902344 59.816406 C 4.3125 58.59375 4.082031 46.675781 4.605469 44.136719 C 5.035156 41.957031 5.429688 41.558594 7.371094 41.363281 C 9.542969 41.097656 10.367188 42.054688 10.660156 45.160156 L 10.890625 47.535156 L 13.917969 47.535156 L 13.753906 45.125 C 13.457031 40.734375 11.910156 38.984375 8.128906 38.753906 C 7.007812 38.6875 5.691406 38.753906 5.230469 38.917969 Z M 5.230469 38.917969 "/>
<path style=" stroke:none;fill-rule:nonzero;fill:rgb(0%,0%,0%);fill-opacity:1;" d="M 17.441406 51.332031 L 17.441406 63.710938 L 20.730469 63.710938 L 20.730469 52.15625 L 26.984375 52.15625 L 26.984375 63.710938 L 30.273438 63.710938 L 30.273438 38.953125 L 26.984375 38.953125 L 26.984375 49.515625 L 20.730469 49.515625 L 20.730469 38.953125 L 17.441406 38.953125 Z M 17.441406 51.332031 "/>
<path style=" stroke:none;fill-rule:nonzero;fill:rgb(0%,0%,0%);fill-opacity:1;" d="M 38.171875 39.214844 C 38.171875 39.382812 37.050781 44.761719 35.703125 51.167969 C 34.355469 57.570312 33.234375 63.015625 33.234375 63.25 C 33.234375 63.578125 33.695312 63.710938 34.683594 63.710938 L 36.132812 63.710938 L 36.527344 61.992188 C 36.722656 61.035156 36.988281 59.617188 37.085938 58.824219 L 37.28125 57.40625 L 39.949219 57.503906 L 42.582031 57.601562 L 43.105469 60.574219 L 43.632812 63.546875 L 45.179688 63.644531 C 46.300781 63.710938 46.726562 63.613281 46.726562 63.3125 C 46.695312 63.082031 45.542969 57.539062 44.160156 51 L 41.59375 39.117188 L 39.882812 39.019531 C 38.929688 38.953125 38.171875 39.050781 38.171875 39.214844 Z M 41.890625 54.863281 C 41.691406 55.195312 38.269531 55.195312 38.039062 54.863281 C 37.90625 54.664062 38.796875 49.382812 39.683594 44.894531 C 39.882812 43.9375 40.078125 44.597656 41 49.1875 C 41.5625 52.191406 41.988281 54.730469 41.890625 54.863281 Z M 41.890625 54.863281 "/>
<path style=" stroke:none;fill-rule:nonzero;fill:rgb(0%,0%,0%);fill-opacity:1;" d="M 121.425781 52.652344 L 121.425781 66.019531 L 131.625 66.019531 L 131.625 63.378906 L 125.042969 63.378906 L 125.042969 53.476562 L 130.308594 53.476562 L 130.308594 50.835938 L 125.042969 50.835938 L 125.042969 41.921875 L 131.625 41.921875 L 131.625 39.28125 L 121.425781 39.28125 Z M 121.425781 52.652344 "/>
<path style=" stroke:none;fill-rule:nonzero;fill:rgb(0%,0%,0%);fill-opacity:1;" d="M 134.917969 52.652344 L 134.917969 66.019531 L 138.535156 66.019531 L 138.535156 53.445312 L 140.082031 53.542969 L 141.597656 53.640625 L 143.273438 59.75 L 144.984375 65.855469 L 146.695312 65.957031 C 147.617188 66.019531 148.40625 65.988281 148.40625 65.890625 C 148.40625 65.789062 147.585938 62.785156 146.566406 59.1875 L 144.753906 52.683594 L 145.773438 51.894531 C 147.125 50.835938 147.714844 49.582031 147.945312 47.269531 C 148.242188 44.664062 147.453125 41.957031 146.105469 40.800781 C 144.65625 39.613281 143.144531 39.28125 138.800781 39.28125 L 134.917969 39.28125 Z M 143.371094 42.714844 C 144.164062 43.410156 144.292969 43.773438 144.394531 45.753906 C 144.457031 47.171875 144.328125 48.328125 144.0625 48.855469 C 143.472656 49.945312 141.660156 50.835938 139.949219 50.835938 L 138.535156 50.835938 L 138.535156 41.921875 L 140.476562 41.921875 C 142.089844 41.921875 142.617188 42.089844 143.371094 42.714844 Z M 143.371094 42.714844 "/>
<path style=" stroke:none;fill-rule:nonzero;fill:rgb(0%,0%,0%);fill-opacity:1;" d="M 82.925781 45.222656 L 82.925781 46.875 L 88.1875 46.875 L 88.1875 60.738281 L 91.808594 60.738281 L 91.808594 46.875 L 97.074219 46.875 L 97.074219 43.574219 L 82.925781 43.574219 Z M 82.925781 45.222656 "/>
</g>
</svg>
